<?xml version="1.0" encoding="UTF-8" standalone="no"?>
<!DOCTYPE svg PUBLIC "-//W3C//DTD SVG 1.1//EN"
 "http://www.w3.org/Graphics/SVG/1.1/DTD/svg11.dtd">
<!-- Generated by graphviz version 2.47.3 (20210619.1520)
 -->
<!-- Title: dependencies Pages: 1 -->
<svg width="1220pt" height="247pt"
 viewBox="0.00 0.00 1220.00 246.80" xmlns="http://www.w3.org/2000/svg" xmlns:xlink="http://www.w3.org/1999/xlink">
<g id="graph0" class="graph" transform="scale(1 1) rotate(0) translate(4 242.8)">
<title>dependencies</title>
<polygon fill="white" stroke="transparent" points="-4,4 -4,-242.8 1216,-242.8 1216,4 -4,4"/>
<text text-anchor="middle" x="606" y="-8.2" font-family="sans-serif" font-size="14.00">dependencies</text>
<g id="clust1" class="cluster">
<title>cluster_NgxGooglemapsTrackingViewModule</title>
<polygon fill="none" stroke="black" stroke-dasharray="1,5" points="8,-32.8 8,-230.8 1204,-230.8 1204,-32.8 8,-32.8"/>
</g>
<g id="clust10" class="cluster">
<title>cluster_NgxGooglemapsTrackingViewModule_providers</title>
<polygon fill="none" stroke="black" points="990,-40.8 990,-92.8 1196,-92.8 1196,-40.8 990,-40.8"/>
</g>
<g id="clust2" class="cluster">
<title>cluster_NgxGooglemapsTrackingViewModule_declarations</title>
<polygon fill="none" stroke="black" points="152,-40.8 152,-92.8 982,-92.8 982,-40.8 152,-40.8"/>
</g>
<g id="clust7" class="cluster">
<title>cluster_NgxGooglemapsTrackingViewModule_imports</title>
<polygon fill="none" stroke="black" points="16,-40.8 16,-92.8 144,-92.8 144,-40.8 16,-40.8"/>
</g>
<g id="clust8" class="cluster">
<title>cluster_NgxGooglemapsTrackingViewModule_exports</title>
<polygon fill="none" stroke="black" points="234,-170.8 234,-222.8 891,-222.8 891,-170.8 234,-170.8"/>
</g>
<!-- NgxGooglemapsTrackingViewComponent -->
<g id="node1" class="node">
<title>NgxGooglemapsTrackingViewComponent</title>
<polygon fill="#ffffb3" stroke="black" points="973.55,-84.8 716.45,-84.8 716.45,-48.8 973.55,-48.8 973.55,-84.8"/>
<text text-anchor="middle" x="845" y="-62.6" font-family="Times,serif" font-size="14.00">NgxGooglemapsTrackingViewComponent</text>
</g>
<!-- NgxGooglemapsTrackingViewModule -->
<g id="node5" class="node">
<title>NgxGooglemapsTrackingViewModule</title>
<polygon fill="#8dd3c7" stroke="black" points="645.77,-149.8 642.77,-153.8 621.77,-153.8 618.77,-149.8 410.23,-149.8 410.23,-113.8 645.77,-113.8 645.77,-149.8"/>
<text text-anchor="middle" x="528" y="-127.6" font-family="Times,serif" font-size="14.00">NgxGooglemapsTrackingViewModule</text>
</g>
<!-- NgxGooglemapsTrackingViewComponent&#45;&gt;NgxGooglemapsTrackingViewModule -->
<g id="edge1" class="edge">
<title>NgxGooglemapsTrackingViewComponent&#45;&gt;NgxGooglemapsTrackingViewModule</title>
<path fill="none" stroke="black" d="M799.88,-84.82C799.88,-102.17 799.88,-125.8 799.88,-125.8 799.88,-125.8 655.67,-125.8 655.67,-125.8"/>
<polygon fill="black" stroke="black" points="655.67,-122.3 645.67,-125.8 655.67,-129.3 655.67,-122.3"/>
</g>
<!-- TrackedObjectComponent -->
<g id="node2" class="node">
<title>TrackedObjectComponent</title>
<polygon fill="#ffffb3" stroke="black" points="698.01,-84.8 533.99,-84.8 533.99,-48.8 698.01,-48.8 698.01,-84.8"/>
<text text-anchor="middle" x="616" y="-62.6" font-family="Times,serif" font-size="14.00">TrackedObjectComponent</text>
</g>
<!-- TrackedObjectComponent&#45;&gt;NgxGooglemapsTrackingViewModule -->
<g id="edge2" class="edge">
<title>TrackedObjectComponent&#45;&gt;NgxGooglemapsTrackingViewModule</title>
<path fill="none" stroke="black" d="M589.69,-84.91C589.69,-84.91 589.69,-103.79 589.69,-103.79"/>
<polygon fill="black" stroke="black" points="586.19,-103.79 589.69,-113.79 593.19,-103.79 586.19,-103.79"/>
</g>
<!-- InfowindowComponent -->
<g id="node3" class="node">
<title>InfowindowComponent</title>
<polygon fill="#ffffb3" stroke="black" points="515.76,-84.8 366.24,-84.8 366.24,-48.8 515.76,-48.8 515.76,-84.8"/>
<text text-anchor="middle" x="441" y="-62.6" font-family="Times,serif" font-size="14.00">InfowindowComponent</text>
</g>
<!-- InfowindowComponent&#45;&gt;NgxGooglemapsTrackingViewModule -->
<g id="edge3" class="edge">
<title>InfowindowComponent&#45;&gt;NgxGooglemapsTrackingViewModule</title>
<path fill="none" stroke="black" d="M463.12,-84.91C463.12,-84.91 463.12,-103.79 463.12,-103.79"/>
<polygon fill="black" stroke="black" points="459.62,-103.79 463.12,-113.79 466.62,-103.79 459.62,-103.79"/>
</g>
<!-- GeolocationButtonComponent -->
<g id="node4" class="node">
<title>GeolocationButtonComponent</title>
<polygon fill="#ffffb3" stroke="black" points="347.87,-84.8 160.13,-84.8 160.13,-48.8 347.87,-48.8 347.87,-84.8"/>
<text text-anchor="middle" x="254" y="-62.6" font-family="Times,serif" font-size="14.00">GeolocationButtonComponent</text>
</g>
<!-- GeolocationButtonComponent&#45;&gt;NgxGooglemapsTrackingViewModule -->
<g id="edge4" class="edge">
<title>GeolocationButtonComponent&#45;&gt;NgxGooglemapsTrackingViewModule</title>
<path fill="none" stroke="black" d="M295.12,-84.82C295.12,-102.17 295.12,-125.8 295.12,-125.8 295.12,-125.8 400.2,-125.8 400.2,-125.8"/>
<polygon fill="black" stroke="black" points="400.2,-129.3 410.2,-125.8 400.2,-122.3 400.2,-129.3"/>
</g>
<!-- NgxGooglemapsTrackingViewComponent  -->
<g id="node7" class="node">
<title>NgxGooglemapsTrackingViewComponent </title>
<polygon fill="#fb8072" stroke="black" points="883.05,-214.8 622.95,-214.8 622.95,-178.8 883.05,-178.8 883.05,-214.8"/>
<text text-anchor="middle" x="753" y="-192.6" font-family="Times,serif" font-size="14.00">NgxGooglemapsTrackingViewComponent </text>
</g>
<!-- NgxGooglemapsTrackingViewModule&#45;&gt;NgxGooglemapsTrackingViewComponent  -->
<g id="edge6" class="edge">
<title>NgxGooglemapsTrackingViewModule&#45;&gt;NgxGooglemapsTrackingViewComponent </title>
<path fill="none" stroke="black" stroke-dasharray="5,2" d="M634.18,-149.91C634.18,-149.91 634.18,-168.79 634.18,-168.79"/>
<polygon fill="black" stroke="black" points="630.68,-168.79 634.18,-178.79 637.68,-168.79 630.68,-168.79"/>
</g>
<!-- InfowindowComponent  -->
<g id="node8" class="node">
<title>InfowindowComponent </title>
<polygon fill="#fb8072" stroke="black" points="604.76,-214.8 451.24,-214.8 451.24,-178.8 604.76,-178.8 604.76,-214.8"/>
<text text-anchor="middle" x="528" y="-192.6" font-family="Times,serif" font-size="14.00">InfowindowComponent </text>
</g>
<!-- NgxGooglemapsTrackingViewModule&#45;&gt;InfowindowComponent  -->
<g id="edge7" class="edge">
<title>NgxGooglemapsTrackingViewModule&#45;&gt;InfowindowComponent </title>
<path fill="none" stroke="black" stroke-dasharray="5,2" d="M528,-149.91C528,-149.91 528,-168.79 528,-168.79"/>
<polygon fill="black" stroke="black" points="524.5,-168.79 528,-178.79 531.5,-168.79 524.5,-168.79"/>
</g>
<!-- GeolocationButtonComponent  -->
<g id="node9" class="node">
<title>GeolocationButtonComponent </title>
<polygon fill="#fb8072" stroke="black" points="433.87,-214.8 242.13,-214.8 242.13,-178.8 433.87,-178.8 433.87,-214.8"/>
<text text-anchor="middle" x="338" y="-192.6" font-family="Times,serif" font-size="14.00">GeolocationButtonComponent </text>
</g>
<!-- NgxGooglemapsTrackingViewModule&#45;&gt;GeolocationButtonComponent  -->
<g id="edge8" class="edge">
<title>NgxGooglemapsTrackingViewModule&#45;&gt;GeolocationButtonComponent </title>
<path fill="none" stroke="black" stroke-dasharray="5,2" d="M422.03,-149.91C422.03,-149.91 422.03,-168.79 422.03,-168.79"/>
<polygon fill="black" stroke="black" points="418.53,-168.79 422.03,-178.79 425.53,-168.79 418.53,-168.79"/>
</g>
<!-- CommonModule -->
<g id="node6" class="node">
<title>CommonModule</title>
<polygon fill="#8dd3c7" stroke="black" points="135.67,-84.8 132.67,-88.8 111.67,-88.8 108.67,-84.8 24.33,-84.8 24.33,-48.8 135.67,-48.8 135.67,-84.8"/>
<text text-anchor="middle" x="80" y="-62.6" font-family="Times,serif" font-size="14.00">CommonModule</text>
</g>
<!-- CommonModule&#45;&gt;NgxGooglemapsTrackingViewModule -->
<g id="edge5" class="edge">
<title>CommonModule&#45;&gt;NgxGooglemapsTrackingViewModule</title>
<path fill="none" stroke="black" d="M80,-85.08C80,-106.12 80,-137.8 80,-137.8 80,-137.8 400.29,-137.8 400.29,-137.8"/>
<polygon fill="black" stroke="black" points="400.29,-141.3 410.29,-137.8 400.29,-134.3 400.29,-141.3"/>
</g>
<!-- GoogleMapsWrapper -->
<g id="node10" class="node">
<title>GoogleMapsWrapper</title>
<ellipse fill="#fdb462" stroke="black" cx="1093" cy="-66.8" rx="94.89" ry="18"/>
<text text-anchor="middle" x="1093" y="-62.6" font-family="Times,serif" font-size="14.00">GoogleMapsWrapper</text>
</g>
<!-- GoogleMapsWrapper&#45;&gt;NgxGooglemapsTrackingViewModule -->
<g id="edge9" class="edge">
<title>GoogleMapsWrapper&#45;&gt;NgxGooglemapsTrackingViewModule</title>
<path fill="none" stroke="black" d="M1093,-85.08C1093,-106.12 1093,-137.8 1093,-137.8 1093,-137.8 655.75,-137.8 655.75,-137.8"/>
<polygon fill="black" stroke="black" points="655.75,-134.3 645.75,-137.8 655.75,-141.3 655.75,-134.3"/>
</g>
</g>
</svg>
