<?xml version="1.0" encoding="UTF-8" standalone="no"?>
<!DOCTYPE svg PUBLIC "-//W3C//DTD SVG 1.1//EN"
 "http://www.w3.org/Graphics/SVG/1.1/DTD/svg11.dtd">
<!-- Generated by graphviz version 2.47.3 (20210619.1520)
 -->
<!-- Title: dependencies Pages: 1 -->
<svg width="1220pt" height="247pt"
 viewBox="0.00 0.00 1220.00 246.80" xmlns="http://www.w3.org/2000/svg" xmlns:xlink="http://www.w3.org/1999/xlink">
<g id="graph0" class="graph" transform="scale(1 1) rotate(0) translate(4 242.8)">
<title>dependencies</title>
<polygon fill="white" stroke="transparent" points="-4,4 -4,-242.8 1216,-242.8 1216,4 -4,4"/>
<text text-anchor="middle" x="606" y="-8.2" font-family="sans-serif" font-size="14.00">dependencies</text>
<g id="clust1" class="cluster">
<title>cluster_NgxGooglemapsTrackingViewModule</title>
<polygon fill="none" stroke="black" stroke-dasharray="1,5" points="8,-32.8 8,-230.8 1204,-230.8 1204,-32.8 8,-32.8"/>
</g>
<g id="clust2" class="cluster">
<title>cluster_NgxGooglemapsTrackingViewModule_declarations</title>
<polygon fill="none" stroke="black" points="366,-40.8 366,-92.8 1196,-92.8 1196,-40.8 366,-40.8"/>
</g>
<g id="clust7" class="cluster">
<title>cluster_NgxGooglemapsTrackingViewModule_imports</title>
<polygon fill="none" stroke="black" points="230,-40.8 230,-92.8 358,-92.8 358,-40.8 230,-40.8"/>
</g>
<g id="clust8" class="cluster">
<title>cluster_NgxGooglemapsTrackingViewModule_exports</title>
<polygon fill="none" stroke="black" points="267,-170.8 267,-222.8 924,-222.8 924,-170.8 267,-170.8"/>
</g>
<g id="clust10" class="cluster">
<title>cluster_NgxGooglemapsTrackingViewModule_providers</title>
<polygon fill="none" stroke="black" points="16,-40.8 16,-92.8 222,-92.8 222,-40.8 16,-40.8"/>
</g>
<!-- NgxGooglemapsTrackingViewComponent -->
<g id="node1" class="node">
<title>NgxGooglemapsTrackingViewComponent</title>
<polygon fill="#ffffb3" stroke="black" points="1187.55,-84.8 930.45,-84.8 930.45,-48.8 1187.55,-48.8 1187.55,-84.8"/>
<text text-anchor="middle" x="1059" y="-62.6" font-family="Times,serif" font-size="14.00">NgxGooglemapsTrackingViewComponent</text>
</g>
<!-- NgxGooglemapsTrackingViewModule -->
<g id="node5" class="node">
<title>NgxGooglemapsTrackingViewModule</title>
<polygon fill="#8dd3c7" stroke="black" points="678.77,-149.8 675.77,-153.8 654.77,-153.8 651.77,-149.8 443.23,-149.8 443.23,-113.8 678.77,-113.8 678.77,-149.8"/>
<text text-anchor="middle" x="561" y="-127.6" font-family="Times,serif" font-size="14.00">NgxGooglemapsTrackingViewModule</text>
</g>
<!-- NgxGooglemapsTrackingViewComponent&#45;&gt;NgxGooglemapsTrackingViewModule -->
<g id="edge1" class="edge">
<title>NgxGooglemapsTrackingViewComponent&#45;&gt;NgxGooglemapsTrackingViewModule</title>
<path fill="none" stroke="black" d="M1059,-85.08C1059,-106.12 1059,-137.8 1059,-137.8 1059,-137.8 688.7,-137.8 688.7,-137.8"/>
<polygon fill="black" stroke="black" points="688.7,-134.3 678.7,-137.8 688.7,-141.3 688.7,-134.3"/>
</g>
<!-- TrackedObjectComponent -->
<g id="node2" class="node">
<title>TrackedObjectComponent</title>
<polygon fill="#ffffb3" stroke="black" points="912.01,-84.8 747.99,-84.8 747.99,-48.8 912.01,-48.8 912.01,-84.8"/>
<text text-anchor="middle" x="830" y="-62.6" font-family="Times,serif" font-size="14.00">TrackedObjectComponent</text>
</g>
<!-- TrackedObjectComponent&#45;&gt;NgxGooglemapsTrackingViewModule -->
<g id="edge2" class="edge">
<title>TrackedObjectComponent&#45;&gt;NgxGooglemapsTrackingViewModule</title>
<path fill="none" stroke="black" d="M830,-84.82C830,-102.17 830,-125.8 830,-125.8 830,-125.8 688.99,-125.8 688.99,-125.8"/>
<polygon fill="black" stroke="black" points="688.99,-122.3 678.99,-125.8 688.99,-129.3 688.99,-122.3"/>
</g>
<!-- InfowindowComponent -->
<g id="node3" class="node">
<title>InfowindowComponent</title>
<polygon fill="#ffffb3" stroke="black" points="729.76,-84.8 580.24,-84.8 580.24,-48.8 729.76,-48.8 729.76,-84.8"/>
<text text-anchor="middle" x="655" y="-62.6" font-family="Times,serif" font-size="14.00">InfowindowComponent</text>
</g>
<!-- InfowindowComponent&#45;&gt;NgxGooglemapsTrackingViewModule -->
<g id="edge3" class="edge">
<title>InfowindowComponent&#45;&gt;NgxGooglemapsTrackingViewModule</title>
<path fill="none" stroke="black" d="M629.38,-84.91C629.38,-84.91 629.38,-103.79 629.38,-103.79"/>
<polygon fill="black" stroke="black" points="625.88,-103.79 629.38,-113.79 632.88,-103.79 625.88,-103.79"/>
</g>
<!-- GeolocationButtonComponent -->
<g id="node4" class="node">
<title>GeolocationButtonComponent</title>
<polygon fill="#ffffb3" stroke="black" points="561.87,-84.8 374.13,-84.8 374.13,-48.8 561.87,-48.8 561.87,-84.8"/>
<text text-anchor="middle" x="468" y="-62.6" font-family="Times,serif" font-size="14.00">GeolocationButtonComponent</text>
</g>
<!-- GeolocationButtonComponent&#45;&gt;NgxGooglemapsTrackingViewModule -->
<g id="edge4" class="edge">
<title>GeolocationButtonComponent&#45;&gt;NgxGooglemapsTrackingViewModule</title>
<path fill="none" stroke="black" d="M502.65,-84.91C502.65,-84.91 502.65,-103.79 502.65,-103.79"/>
<polygon fill="black" stroke="black" points="499.15,-103.79 502.65,-113.79 506.15,-103.79 499.15,-103.79"/>
</g>
<!-- NgxGooglemapsTrackingViewComponent  -->
<g id="node7" class="node">
<title>NgxGooglemapsTrackingViewComponent </title>
<polygon fill="#fb8072" stroke="black" points="916.05,-214.8 655.95,-214.8 655.95,-178.8 916.05,-178.8 916.05,-214.8"/>
<text text-anchor="middle" x="786" y="-192.6" font-family="Times,serif" font-size="14.00">NgxGooglemapsTrackingViewComponent </text>
</g>
<!-- NgxGooglemapsTrackingViewModule&#45;&gt;NgxGooglemapsTrackingViewComponent  -->
<g id="edge6" class="edge">
<title>NgxGooglemapsTrackingViewModule&#45;&gt;NgxGooglemapsTrackingViewComponent </title>
<path fill="none" stroke="black" stroke-dasharray="5,2" d="M667.18,-149.91C667.18,-149.91 667.18,-168.79 667.18,-168.79"/>
<polygon fill="black" stroke="black" points="663.68,-168.79 667.18,-178.79 670.68,-168.79 663.68,-168.79"/>
</g>
<!-- InfowindowComponent  -->
<g id="node8" class="node">
<title>InfowindowComponent </title>
<polygon fill="#fb8072" stroke="black" points="637.76,-214.8 484.24,-214.8 484.24,-178.8 637.76,-178.8 637.76,-214.8"/>
<text text-anchor="middle" x="561" y="-192.6" font-family="Times,serif" font-size="14.00">InfowindowComponent </text>
</g>
<!-- NgxGooglemapsTrackingViewModule&#45;&gt;InfowindowComponent  -->
<g id="edge7" class="edge">
<title>NgxGooglemapsTrackingViewModule&#45;&gt;InfowindowComponent </title>
<path fill="none" stroke="black" stroke-dasharray="5,2" d="M561,-149.91C561,-149.91 561,-168.79 561,-168.79"/>
<polygon fill="black" stroke="black" points="557.5,-168.79 561,-178.79 564.5,-168.79 557.5,-168.79"/>
</g>
<!-- GeolocationButtonComponent  -->
<g id="node9" class="node">
<title>GeolocationButtonComponent </title>
<polygon fill="#fb8072" stroke="black" points="466.87,-214.8 275.13,-214.8 275.13,-178.8 466.87,-178.8 466.87,-214.8"/>
<text text-anchor="middle" x="371" y="-192.6" font-family="Times,serif" font-size="14.00">GeolocationButtonComponent </text>
</g>
<!-- NgxGooglemapsTrackingViewModule&#45;&gt;GeolocationButtonComponent  -->
<g id="edge8" class="edge">
<title>NgxGooglemapsTrackingViewModule&#45;&gt;GeolocationButtonComponent </title>
<path fill="none" stroke="black" stroke-dasharray="5,2" d="M455.03,-149.91C455.03,-149.91 455.03,-168.79 455.03,-168.79"/>
<polygon fill="black" stroke="black" points="451.53,-168.79 455.03,-178.79 458.53,-168.79 451.53,-168.79"/>
</g>
<!-- CommonModule -->
<g id="node6" class="node">
<title>CommonModule</title>
<polygon fill="#8dd3c7" stroke="black" points="349.67,-84.8 346.67,-88.8 325.67,-88.8 322.67,-84.8 238.33,-84.8 238.33,-48.8 349.67,-48.8 349.67,-84.8"/>
<text text-anchor="middle" x="294" y="-62.6" font-family="Times,serif" font-size="14.00">CommonModule</text>
</g>
<!-- CommonModule&#45;&gt;NgxGooglemapsTrackingViewModule -->
<g id="edge5" class="edge">
<title>CommonModule&#45;&gt;NgxGooglemapsTrackingViewModule</title>
<path fill="none" stroke="black" d="M312.57,-84.82C312.57,-102.17 312.57,-125.8 312.57,-125.8 312.57,-125.8 433.33,-125.8 433.33,-125.8"/>
<polygon fill="black" stroke="black" points="433.33,-129.3 443.33,-125.8 433.33,-122.3 433.33,-129.3"/>
</g>
<!-- GoogleMapsWrapper -->
<g id="node10" class="node">
<title>GoogleMapsWrapper</title>
<ellipse fill="#fdb462" stroke="black" cx="119" cy="-66.8" rx="94.89" ry="18"/>
<text text-anchor="middle" x="119" y="-62.6" font-family="Times,serif" font-size="14.00">GoogleMapsWrapper</text>
</g>
<!-- GoogleMapsWrapper&#45;&gt;NgxGooglemapsTrackingViewModule -->
<g id="edge9" class="edge">
<title>GoogleMapsWrapper&#45;&gt;NgxGooglemapsTrackingViewModule</title>
<path fill="none" stroke="black" d="M119,-85.08C119,-106.12 119,-137.8 119,-137.8 119,-137.8 433.13,-137.8 433.13,-137.8"/>
<polygon fill="black" stroke="black" points="433.13,-141.3 443.13,-137.8 433.13,-134.3 433.13,-141.3"/>
</g>
</g>
</svg>
