<?xml version="1.0" encoding="UTF-8" standalone="no"?>
<!DOCTYPE svg PUBLIC "-//W3C//DTD SVG 1.1//EN"
 "http://www.w3.org/Graphics/SVG/1.1/DTD/svg11.dtd">
<!-- Generated by graphviz version 2.40.1 (20161225.0304)
 -->
<!-- Title: dependencies Pages: 1 -->
<svg width="877pt" height="284pt"
 viewBox="0.00 0.00 877.00 284.00" xmlns="http://www.w3.org/2000/svg" xmlns:xlink="http://www.w3.org/1999/xlink">
<g id="graph0" class="graph" transform="scale(1 1) rotate(0) translate(4 280)">
<title>dependencies</title>
<polygon fill="#ffffff" stroke="transparent" points="-4,4 -4,-280 873,-280 873,4 -4,4"/>
<text text-anchor="start" x="413.5091" y="-42.4" font-family="sans-serif" font-weight="bold" font-size="14.00" fill="#000000">Legend</text>
<polygon fill="#ffffb3" stroke="transparent" points="200.5,-10 200.5,-30 220.5,-30 220.5,-10 200.5,-10"/>
<text text-anchor="start" x="224.129" y="-15.4" font-family="sans-serif" font-size="14.00" fill="#000000"> &#160;Declarations</text>
<polygon fill="#8dd3c7" stroke="transparent" points="313.5,-10 313.5,-30 333.5,-30 333.5,-10 313.5,-10"/>
<text text-anchor="start" x="337.2251" y="-15.4" font-family="sans-serif" font-size="14.00" fill="#000000"> &#160;Module</text>
<polygon fill="#80b1d3" stroke="transparent" points="399.5,-10 399.5,-30 419.5,-30 419.5,-10 399.5,-10"/>
<text text-anchor="start" x="423.2812" y="-15.4" font-family="sans-serif" font-size="14.00" fill="#000000"> &#160;Bootstrap</text>
<polygon fill="#fdb462" stroke="transparent" points="496.5,-10 496.5,-30 516.5,-30 516.5,-10 496.5,-10"/>
<text text-anchor="start" x="520.1732" y="-15.4" font-family="sans-serif" font-size="14.00" fill="#000000"> &#160;Providers</text>
<polygon fill="#fb8072" stroke="transparent" points="592.5,-10 592.5,-30 612.5,-30 612.5,-10 592.5,-10"/>
<text text-anchor="start" x="616.2258" y="-15.4" font-family="sans-serif" font-size="14.00" fill="#000000"> &#160;Exports</text>
<g id="clust1" class="cluster">
<title>cluster_NgxGooglemapsTrackingViewModule</title>
<polygon fill="none" stroke="#000000" stroke-dasharray="1,5" points="8,-70 8,-268 861,-268 861,-70 8,-70"/>
</g>
<g id="clust2" class="cluster">
<title>cluster_NgxGooglemapsTrackingViewModule_declarations</title>
<polygon fill="none" stroke="#000000" points="230,-78 230,-130 853,-130 853,-78 230,-78"/>
</g>
<g id="clust7" class="cluster">
<title>cluster_NgxGooglemapsTrackingViewModule_exports</title>
<polygon fill="none" stroke="#000000" points="181,-208 181,-260 629,-260 629,-208 181,-208"/>
</g>
<g id="clust9" class="cluster">
<title>cluster_NgxGooglemapsTrackingViewModule_providers</title>
<polygon fill="none" stroke="#000000" points="16,-78 16,-130 222,-130 222,-78 16,-78"/>
</g>
<!-- InfowindowComponent -->
<g id="node1" class="node">
<title>InfowindowComponent</title>
<polygon fill="#ffffb3" stroke="#000000" points="844.7576,-122 695.2424,-122 695.2424,-86 844.7576,-86 844.7576,-122"/>
<text text-anchor="middle" x="770" y="-99.8" font-family="Times,serif" font-size="14.00" fill="#000000">InfowindowComponent</text>
</g>
<!-- NgxGooglemapsTrackingViewModule -->
<g id="node4" class="node">
<title>NgxGooglemapsTrackingViewModule</title>
<polygon fill="#8dd3c7" stroke="#000000" points="548.7696,-187 545.7696,-191 524.7696,-191 521.7696,-187 313.2304,-187 313.2304,-151 548.7696,-151 548.7696,-187"/>
<text text-anchor="middle" x="431" y="-164.8" font-family="Times,serif" font-size="14.00" fill="#000000">NgxGooglemapsTrackingViewModule</text>
</g>
<!-- InfowindowComponent&#45;&gt;NgxGooglemapsTrackingViewModule -->
<g id="edge1" class="edge">
<title>InfowindowComponent&#45;&gt;NgxGooglemapsTrackingViewModule</title>
<path fill="none" stroke="#000000" d="M770,-122.1061C770,-141.3391 770,-169 770,-169 770,-169 559.0899,-169 559.0899,-169"/>
<polygon fill="#000000" stroke="#000000" points="559.0899,-165.5001 549.0899,-169 559.0898,-172.5001 559.0899,-165.5001"/>
</g>
<!-- NgxGooglemapsTrackingViewComponent -->
<g id="node2" class="node">
<title>NgxGooglemapsTrackingViewComponent</title>
<polygon fill="#ffffb3" stroke="#000000" points="677.552,-122 420.448,-122 420.448,-86 677.552,-86 677.552,-122"/>
<text text-anchor="middle" x="549" y="-99.8" font-family="Times,serif" font-size="14.00" fill="#000000">NgxGooglemapsTrackingViewComponent</text>
</g>
<!-- NgxGooglemapsTrackingViewComponent&#45;&gt;NgxGooglemapsTrackingViewModule -->
<g id="edge2" class="edge">
<title>NgxGooglemapsTrackingViewComponent&#45;&gt;NgxGooglemapsTrackingViewModule</title>
<path fill="none" stroke="#000000" d="M484.5544,-122.1061C484.5544,-122.1061 484.5544,-140.991 484.5544,-140.991"/>
<polygon fill="#000000" stroke="#000000" points="481.0544,-140.9909 484.5544,-150.991 488.0544,-140.991 481.0544,-140.9909"/>
</g>
<!-- TrackedObjectComponent -->
<g id="node3" class="node">
<title>TrackedObjectComponent</title>
<polygon fill="#ffffb3" stroke="#000000" points="402.0071,-122 237.9929,-122 237.9929,-86 402.0071,-86 402.0071,-122"/>
<text text-anchor="middle" x="320" y="-99.8" font-family="Times,serif" font-size="14.00" fill="#000000">TrackedObjectComponent</text>
</g>
<!-- TrackedObjectComponent&#45;&gt;NgxGooglemapsTrackingViewModule -->
<g id="edge3" class="edge">
<title>TrackedObjectComponent&#45;&gt;NgxGooglemapsTrackingViewModule</title>
<path fill="none" stroke="#000000" d="M357.8093,-122.1061C357.8093,-122.1061 357.8093,-140.991 357.8093,-140.991"/>
<polygon fill="#000000" stroke="#000000" points="354.3093,-140.9909 357.8093,-150.991 361.3093,-140.991 354.3093,-140.9909"/>
</g>
<!-- InfowindowComponent  -->
<g id="node5" class="node">
<title>InfowindowComponent </title>
<polygon fill="#fb8072" stroke="#000000" points="620.7576,-252 467.2424,-252 467.2424,-216 620.7576,-216 620.7576,-252"/>
<text text-anchor="middle" x="544" y="-229.8" font-family="Times,serif" font-size="14.00" fill="#000000">InfowindowComponent </text>
</g>
<!-- NgxGooglemapsTrackingViewModule&#45;&gt;InfowindowComponent  -->
<g id="edge4" class="edge">
<title>NgxGooglemapsTrackingViewModule&#45;&gt;InfowindowComponent </title>
<path fill="none" stroke="#000000" stroke-dasharray="5,2" d="M508.003,-187.1061C508.003,-187.1061 508.003,-205.991 508.003,-205.991"/>
<polygon fill="#000000" stroke="#000000" points="504.5031,-205.9909 508.003,-215.991 511.5031,-205.991 504.5031,-205.9909"/>
</g>
<!-- NgxGooglemapsTrackingViewComponent  -->
<g id="node6" class="node">
<title>NgxGooglemapsTrackingViewComponent </title>
<polygon fill="#fb8072" stroke="#000000" points="449.0524,-252 188.9476,-252 188.9476,-216 449.0524,-216 449.0524,-252"/>
<text text-anchor="middle" x="319" y="-229.8" font-family="Times,serif" font-size="14.00" fill="#000000">NgxGooglemapsTrackingViewComponent </text>
</g>
<!-- NgxGooglemapsTrackingViewModule&#45;&gt;NgxGooglemapsTrackingViewComponent  -->
<g id="edge5" class="edge">
<title>NgxGooglemapsTrackingViewModule&#45;&gt;NgxGooglemapsTrackingViewComponent </title>
<path fill="none" stroke="#000000" stroke-dasharray="5,2" d="M381.3207,-187.1061C381.3207,-187.1061 381.3207,-205.991 381.3207,-205.991"/>
<polygon fill="#000000" stroke="#000000" points="377.8207,-205.9909 381.3207,-215.991 384.8207,-205.991 377.8207,-205.9909"/>
</g>
<!-- GoogleMapsWrapper -->
<g id="node7" class="node">
<title>GoogleMapsWrapper</title>
<ellipse fill="#fdb462" stroke="#000000" cx="119" cy="-104" rx="94.8877" ry="18"/>
<text text-anchor="middle" x="119" y="-99.8" font-family="Times,serif" font-size="14.00" fill="#000000">GoogleMapsWrapper</text>
</g>
<!-- GoogleMapsWrapper&#45;&gt;NgxGooglemapsTrackingViewModule -->
<g id="edge6" class="edge">
<title>GoogleMapsWrapper&#45;&gt;NgxGooglemapsTrackingViewModule</title>
<path fill="none" stroke="#000000" d="M201.2088,-113.038C201.2088,-130.8982 201.2088,-169 201.2088,-169 201.2088,-169 303.0753,-169 303.0753,-169"/>
<polygon fill="#000000" stroke="#000000" points="303.0753,-172.5001 313.0753,-169 303.0752,-165.5001 303.0753,-172.5001"/>
</g>
</g>
</svg>
