<?xml version="1.0" encoding="UTF-8" standalone="no"?>
<!DOCTYPE svg PUBLIC "-//W3C//DTD SVG 1.1//EN"
 "http://www.w3.org/Graphics/SVG/1.1/DTD/svg11.dtd">
<!-- Generated by graphviz version 2.40.1 (20161225.0304)
 -->
<!-- Title: dependencies Pages: 1 -->
<svg width="1083pt" height="284pt"
 viewBox="0.00 0.00 1083.00 284.00" xmlns="http://www.w3.org/2000/svg" xmlns:xlink="http://www.w3.org/1999/xlink">
<g id="graph0" class="graph" transform="scale(1 1) rotate(0) translate(4 280)">
<title>dependencies</title>
<polygon fill="#ffffff" stroke="transparent" points="-4,4 -4,-280 1079,-280 1079,4 -4,4"/>
<text text-anchor="start" x="516.5091" y="-42.4" font-family="sans-serif" font-weight="bold" font-size="14.00" fill="#000000">Legend</text>
<polygon fill="#ffffb3" stroke="transparent" points="303.5,-10 303.5,-30 323.5,-30 323.5,-10 303.5,-10"/>
<text text-anchor="start" x="327.129" y="-15.4" font-family="sans-serif" font-size="14.00" fill="#000000"> &#160;Declarations</text>
<polygon fill="#8dd3c7" stroke="transparent" points="416.5,-10 416.5,-30 436.5,-30 436.5,-10 416.5,-10"/>
<text text-anchor="start" x="440.2251" y="-15.4" font-family="sans-serif" font-size="14.00" fill="#000000"> &#160;Module</text>
<polygon fill="#80b1d3" stroke="transparent" points="502.5,-10 502.5,-30 522.5,-30 522.5,-10 502.5,-10"/>
<text text-anchor="start" x="526.2812" y="-15.4" font-family="sans-serif" font-size="14.00" fill="#000000"> &#160;Bootstrap</text>
<polygon fill="#fdb462" stroke="transparent" points="599.5,-10 599.5,-30 619.5,-30 619.5,-10 599.5,-10"/>
<text text-anchor="start" x="623.1732" y="-15.4" font-family="sans-serif" font-size="14.00" fill="#000000"> &#160;Providers</text>
<polygon fill="#fb8072" stroke="transparent" points="695.5,-10 695.5,-30 715.5,-30 715.5,-10 695.5,-10"/>
<text text-anchor="start" x="719.2258" y="-15.4" font-family="sans-serif" font-size="14.00" fill="#000000"> &#160;Exports</text>
<g id="clust1" class="cluster">
<title>cluster_NgxGooglemapsTrackingViewModule</title>
<polygon fill="none" stroke="#000000" stroke-dasharray="1,5" points="8,-70 8,-268 1067,-268 1067,-70 8,-70"/>
</g>
<g id="clust2" class="cluster">
<title>cluster_NgxGooglemapsTrackingViewModule_declarations</title>
<polygon fill="none" stroke="#000000" points="230,-78 230,-130 1059,-130 1059,-78 230,-78"/>
</g>
<g id="clust8" class="cluster">
<title>cluster_NgxGooglemapsTrackingViewModule_exports</title>
<polygon fill="none" stroke="#000000" points="186,-208 186,-260 843,-260 843,-208 186,-208"/>
</g>
<g id="clust10" class="cluster">
<title>cluster_NgxGooglemapsTrackingViewModule_providers</title>
<polygon fill="none" stroke="#000000" points="16,-78 16,-130 222,-130 222,-78 16,-78"/>
</g>
<!-- GeolocationButtonComponent -->
<g id="node1" class="node">
<title>GeolocationButtonComponent</title>
<polygon fill="#ffffb3" stroke="#000000" points="1050.8724,-122 863.1276,-122 863.1276,-86 1050.8724,-86 1050.8724,-122"/>
<text text-anchor="middle" x="957" y="-99.8" font-family="Times,serif" font-size="14.00" fill="#000000">GeolocationButtonComponent</text>
</g>
<!-- NgxGooglemapsTrackingViewModule -->
<g id="node5" class="node">
<title>NgxGooglemapsTrackingViewModule</title>
<polygon fill="#8dd3c7" stroke="#000000" points="666.7696,-187 663.7696,-191 642.7696,-191 639.7696,-187 431.2304,-187 431.2304,-151 666.7696,-151 666.7696,-187"/>
<text text-anchor="middle" x="549" y="-164.8" font-family="Times,serif" font-size="14.00" fill="#000000">NgxGooglemapsTrackingViewModule</text>
</g>
<!-- GeolocationButtonComponent&#45;&gt;NgxGooglemapsTrackingViewModule -->
<g id="edge1" class="edge">
<title>GeolocationButtonComponent&#45;&gt;NgxGooglemapsTrackingViewModule</title>
<path fill="none" stroke="#000000" d="M957,-122.2843C957,-143.3211 957,-175 957,-175 957,-175 676.7367,-175 676.7367,-175"/>
<polygon fill="#000000" stroke="#000000" points="676.7368,-171.5001 666.7367,-175 676.7367,-178.5001 676.7368,-171.5001"/>
</g>
<!-- InfowindowComponent -->
<g id="node2" class="node">
<title>InfowindowComponent</title>
<polygon fill="#ffffb3" stroke="#000000" points="844.7576,-122 695.2424,-122 695.2424,-86 844.7576,-86 844.7576,-122"/>
<text text-anchor="middle" x="770" y="-99.8" font-family="Times,serif" font-size="14.00" fill="#000000">InfowindowComponent</text>
</g>
<!-- InfowindowComponent&#45;&gt;NgxGooglemapsTrackingViewModule -->
<g id="edge2" class="edge">
<title>InfowindowComponent&#45;&gt;NgxGooglemapsTrackingViewModule</title>
<path fill="none" stroke="#000000" d="M764.9037,-122.0225C764.9037,-139.3734 764.9037,-163 764.9037,-163 764.9037,-163 676.7441,-163 676.7441,-163"/>
<polygon fill="#000000" stroke="#000000" points="676.7442,-159.5001 666.7441,-163 676.7441,-166.5001 676.7442,-159.5001"/>
</g>
<!-- NgxGooglemapsTrackingViewComponent -->
<g id="node3" class="node">
<title>NgxGooglemapsTrackingViewComponent</title>
<polygon fill="#ffffb3" stroke="#000000" points="677.552,-122 420.448,-122 420.448,-86 677.552,-86 677.552,-122"/>
<text text-anchor="middle" x="549" y="-99.8" font-family="Times,serif" font-size="14.00" fill="#000000">NgxGooglemapsTrackingViewComponent</text>
</g>
<!-- NgxGooglemapsTrackingViewComponent&#45;&gt;NgxGooglemapsTrackingViewModule -->
<g id="edge3" class="edge">
<title>NgxGooglemapsTrackingViewComponent&#45;&gt;NgxGooglemapsTrackingViewModule</title>
<path fill="none" stroke="#000000" d="M549,-122.1061C549,-122.1061 549,-140.991 549,-140.991"/>
<polygon fill="#000000" stroke="#000000" points="545.5001,-140.9909 549,-150.991 552.5001,-140.991 545.5001,-140.9909"/>
</g>
<!-- TrackedObjectComponent -->
<g id="node4" class="node">
<title>TrackedObjectComponent</title>
<polygon fill="#ffffb3" stroke="#000000" points="402.0071,-122 237.9929,-122 237.9929,-86 402.0071,-86 402.0071,-122"/>
<text text-anchor="middle" x="320" y="-99.8" font-family="Times,serif" font-size="14.00" fill="#000000">TrackedObjectComponent</text>
</g>
<!-- TrackedObjectComponent&#45;&gt;NgxGooglemapsTrackingViewModule -->
<g id="edge4" class="edge">
<title>TrackedObjectComponent&#45;&gt;NgxGooglemapsTrackingViewModule</title>
<path fill="none" stroke="#000000" d="M320,-122.0225C320,-139.3734 320,-163 320,-163 320,-163 421.1459,-163 421.1459,-163"/>
<polygon fill="#000000" stroke="#000000" points="421.146,-166.5001 431.1459,-163 421.1459,-159.5001 421.146,-166.5001"/>
</g>
<!-- GeolocationButtonComponent  -->
<g id="node6" class="node">
<title>GeolocationButtonComponent </title>
<polygon fill="#fb8072" stroke="#000000" points="834.8728,-252 643.1272,-252 643.1272,-216 834.8728,-216 834.8728,-252"/>
<text text-anchor="middle" x="739" y="-229.8" font-family="Times,serif" font-size="14.00" fill="#000000">GeolocationButtonComponent </text>
</g>
<!-- NgxGooglemapsTrackingViewModule&#45;&gt;GeolocationButtonComponent  -->
<g id="edge5" class="edge">
<title>NgxGooglemapsTrackingViewModule&#45;&gt;GeolocationButtonComponent </title>
<path fill="none" stroke="#000000" stroke-dasharray="5,2" d="M654.9743,-187.1061C654.9743,-187.1061 654.9743,-205.991 654.9743,-205.991"/>
<polygon fill="#000000" stroke="#000000" points="651.4743,-205.9909 654.9743,-215.991 658.4743,-205.991 651.4743,-205.9909"/>
</g>
<!-- InfowindowComponent  -->
<g id="node7" class="node">
<title>InfowindowComponent </title>
<polygon fill="#fb8072" stroke="#000000" points="625.7576,-252 472.2424,-252 472.2424,-216 625.7576,-216 625.7576,-252"/>
<text text-anchor="middle" x="549" y="-229.8" font-family="Times,serif" font-size="14.00" fill="#000000">InfowindowComponent </text>
</g>
<!-- NgxGooglemapsTrackingViewModule&#45;&gt;InfowindowComponent  -->
<g id="edge6" class="edge">
<title>NgxGooglemapsTrackingViewModule&#45;&gt;InfowindowComponent </title>
<path fill="none" stroke="#000000" stroke-dasharray="5,2" d="M549,-187.1061C549,-187.1061 549,-205.991 549,-205.991"/>
<polygon fill="#000000" stroke="#000000" points="545.5001,-205.9909 549,-215.991 552.5001,-205.991 545.5001,-205.9909"/>
</g>
<!-- NgxGooglemapsTrackingViewComponent  -->
<g id="node8" class="node">
<title>NgxGooglemapsTrackingViewComponent </title>
<polygon fill="#fb8072" stroke="#000000" points="454.0524,-252 193.9476,-252 193.9476,-216 454.0524,-216 454.0524,-252"/>
<text text-anchor="middle" x="324" y="-229.8" font-family="Times,serif" font-size="14.00" fill="#000000">NgxGooglemapsTrackingViewComponent </text>
</g>
<!-- NgxGooglemapsTrackingViewModule&#45;&gt;NgxGooglemapsTrackingViewComponent  -->
<g id="edge7" class="edge">
<title>NgxGooglemapsTrackingViewModule&#45;&gt;NgxGooglemapsTrackingViewComponent </title>
<path fill="none" stroke="#000000" stroke-dasharray="5,2" d="M442.8207,-187.1061C442.8207,-187.1061 442.8207,-205.991 442.8207,-205.991"/>
<polygon fill="#000000" stroke="#000000" points="439.3207,-205.9909 442.8207,-215.991 446.3207,-205.991 439.3207,-205.9909"/>
</g>
<!-- GoogleMapsWrapper -->
<g id="node9" class="node">
<title>GoogleMapsWrapper</title>
<ellipse fill="#fdb462" stroke="#000000" cx="119" cy="-104" rx="94.8877" ry="18"/>
<text text-anchor="middle" x="119" y="-99.8" font-family="Times,serif" font-size="14.00" fill="#000000">GoogleMapsWrapper</text>
</g>
<!-- GoogleMapsWrapper&#45;&gt;NgxGooglemapsTrackingViewModule -->
<g id="edge8" class="edge">
<title>GoogleMapsWrapper&#45;&gt;NgxGooglemapsTrackingViewModule</title>
<path fill="none" stroke="#000000" d="M203.7088,-112.1446C203.7088,-130.794 203.7088,-175 203.7088,-175 203.7088,-175 421.1361,-175 421.1361,-175"/>
<polygon fill="#000000" stroke="#000000" points="421.1361,-178.5001 431.1361,-175 421.1361,-171.5001 421.1361,-178.5001"/>
</g>
</g>
</svg>
